<svg xmlns="http://www.w3.org/2000/svg" viewBox="0 0 33 33">
<defs><style>rect{fill:#2da9c8;animation:p 1.28s ease-in-out infinite}@keyframes p{0%,100%{opacity:.44}20%{opacity:.1}50%{opacity:1}80%{opacity:.44}}.d1{animation-delay:-.128s}.d2{animation-delay:-.256s}.d3{animation-delay:-.384s}.d4{animation-delay:-.512s}.d5{animation-delay:-.64s}.d6{animation-delay:-.768s}.d7{animation-delay:-.896s}.d8{animation-delay:-1.024s}.d9{animation-delay:-1.152s}.d10{animation-delay:-1.28s}</style><filter id="b"><feGaussianBlur stdDeviation=".8" result="blur"/><feBlend in="SourceGraphic" in2="blur" mode="screen"/></filter></defs>
<g filter="url(#b)">
<rect class="d10" x=".2" y=".2" width="2.6" height="2.6"/><rect class="d9" x="3.2" y=".2" width="2.6" height="2.6"/><rect class="d8" x="6.2" y=".2" width="2.6" height="2.6"/><rect class="d7" x="9.2" y=".2" width="2.6" height="2.6"/><rect class="d6" x="12.2" y=".2" width="2.6" height="2.6"/><rect class="d5" x="15.2" y=".2" width="2.6" height="2.6"/><rect class="d6" x="18.2" y=".2" width="2.6" height="2.6"/><rect class="d7" x="21.2" y=".2" width="2.6" height="2.6"/><rect class="d8" x="24.2" y=".2" width="2.6" height="2.6"/><rect class="d9" x="27.2" y=".2" width="2.6" height="2.6"/><rect class="d10" x="30.2" y=".2" width="2.6" height="2.6"/>
<rect class="d9" x=".2" y="3.2" width="2.6" height="2.6"/><rect class="d8" x="3.2" y="3.2" width="2.6" height="2.6"/><rect class="d7" x="6.2" y="3.2" width="2.6" height="2.6"/><rect class="d6" x="9.2" y="3.2" width="2.6" height="2.6"/><rect class="d5" x="12.2" y="3.2" width="2.6" height="2.6"/><rect class="d4" x="15.2" y="3.2" width="2.6" height="2.6"/><rect class="d5" x="18.2" y="3.2" width="2.6" height="2.6"/><rect class="d6" x="21.2" y="3.2" width="2.6" height="2.6"/><rect class="d7" x="24.2" y="3.2" width="2.6" height="2.6"/><rect class="d8" x="27.2" y="3.2" width="2.6" height="2.6"/><rect class="d9" x="30.2" y="3.2" width="2.6" height="2.6"/>
<rect class="d8" x=".2" y="6.2" width="2.6" height="2.6"/><rect class="d7" x="3.2" y="6.2" width="2.6" height="2.6"/><rect class="d6" x="6.2" y="6.2" width="2.6" height="2.6"/><rect class="d5" x="9.2" y="6.2" width="2.6" height="2.6"/><rect class="d4" x="12.2" y="6.2" width="2.6" height="2.6"/><rect class="d3" x="15.2" y="6.2" width="2.6" height="2.6"/><rect class="d4" x="18.2" y="6.2" width="2.6" height="2.6"/><rect class="d5" x="21.2" y="6.2" width="2.6" height="2.6"/><rect class="d6" x="24.2" y="6.2" width="2.6" height="2.6"/><rect class="d7" x="27.2" y="6.2" width="2.6" height="2.6"/><rect class="d8" x="30.2" y="6.2" width="2.6" height="2.6"/>
<rect class="d7" x=".2" y="9.2" width="2.6" height="2.6"/><rect class="d6" x="3.2" y="9.2" width="2.6" height="2.6"/><rect class="d5" x="6.2" y="9.2" width="2.6" height="2.6"/><rect class="d4" x="9.2" y="9.2" width="2.6" height="2.6"/><rect class="d3" x="12.2" y="9.2" width="2.6" height="2.6"/><rect class="d2" x="15.2" y="9.2" width="2.6" height="2.6"/><rect class="d3" x="18.2" y="9.2" width="2.6" height="2.6"/><rect class="d4" x="21.2" y="9.2" width="2.6" height="2.6"/><rect class="d5" x="24.2" y="9.2" width="2.6" height="2.6"/><rect class="d6" x="27.2" y="9.2" width="2.6" height="2.6"/><rect class="d7" x="30.2" y="9.2" width="2.6" height="2.6"/>
<rect class="d6" x=".2" y="12.2" width="2.6" height="2.6"/><rect class="d5" x="3.2" y="12.2" width="2.6" height="2.6"/><rect class="d4" x="6.2" y="12.2" width="2.6" height="2.6"/><rect class="d3" x="9.2" y="12.2" width="2.6" height="2.6"/><rect class="d2" x="12.2" y="12.2" width="2.6" height="2.6"/><rect class="d1" x="15.2" y="12.2" width="2.6" height="2.6"/><rect class="d2" x="18.2" y="12.2" width="2.6" height="2.6"/><rect class="d3" x="21.2" y="12.2" width="2.6" height="2.6"/><rect class="d4" x="24.2" y="12.2" width="2.6" height="2.6"/><rect class="d5" x="27.2" y="12.2" width="2.6" height="2.6"/><rect class="d6" x="30.2" y="12.2" width="2.6" height="2.6"/>
<rect class="d5" x=".2" y="15.2" width="2.6" height="2.6"/><rect class="d4" x="3.2" y="15.2" width="2.6" height="2.6"/><rect class="d3" x="6.2" y="15.2" width="2.6" height="2.6"/><rect class="d2" x="9.2" y="15.2" width="2.6" height="2.6"/><rect class="d1" x="12.2" y="15.2" width="2.6" height="2.6"/><rect x="15.2" y="15.2" width="2.6" height="2.6"/><rect class="d1" x="18.2" y="15.2" width="2.6" height="2.6"/><rect class="d2" x="21.2" y="15.2" width="2.6" height="2.6"/><rect class="d3" x="24.2" y="15.2" width="2.6" height="2.6"/><rect class="d4" x="27.2" y="15.2" width="2.6" height="2.6"/><rect class="d5" x="30.2" y="15.2" width="2.6" height="2.6"/>
<rect class="d6" x=".2" y="18.2" width="2.6" height="2.6"/><rect class="d5" x="3.2" y="18.2" width="2.6" height="2.6"/><rect class="d4" x="6.2" y="18.2" width="2.6" height="2.6"/><rect class="d3" x="9.2" y="18.2" width="2.6" height="2.6"/><rect class="d2" x="12.2" y="18.2" width="2.6" height="2.6"/><rect class="d1" x="15.2" y="18.2" width="2.6" height="2.6"/><rect class="d2" x="18.2" y="18.2" width="2.6" height="2.6"/><rect class="d3" x="21.2" y="18.2" width="2.6" height="2.6"/><rect class="d4" x="24.2" y="18.2" width="2.6" height="2.6"/><rect class="d5" x="27.2" y="18.2" width="2.6" height="2.6"/><rect class="d6" x="30.2" y="18.2" width="2.6" height="2.6"/>
<rect class="d7" x=".2" y="21.2" width="2.6" height="2.6"/><rect class="d6" x="3.2" y="21.2" width="2.6" height="2.6"/><rect class="d5" x="6.2" y="21.2" width="2.6" height="2.6"/><rect class="d4" x="9.2" y="21.2" width="2.6" height="2.6"/><rect class="d3" x="12.2" y="21.2" width="2.6" height="2.6"/><rect class="d2" x="15.2" y="21.2" width="2.6" height="2.6"/><rect class="d3" x="18.2" y="21.2" width="2.6" height="2.6"/><rect class="d4" x="21.2" y="21.2" width="2.6" height="2.6"/><rect class="d5" x="24.2" y="21.2" width="2.6" height="2.6"/><rect class="d6" x="27.2" y="21.2" width="2.6" height="2.6"/><rect class="d7" x="30.2" y="21.2" width="2.6" height="2.6"/>
<rect class="d8" x=".2" y="24.2" width="2.6" height="2.6"/><rect class="d7" x="3.2" y="24.2" width="2.6" height="2.6"/><rect class="d6" x="6.2" y="24.2" width="2.6" height="2.6"/><rect class="d5" x="9.2" y="24.2" width="2.6" height="2.6"/><rect class="d4" x="12.2" y="24.2" width="2.6" height="2.6"/><rect class="d3" x="15.2" y="24.2" width="2.6" height="2.6"/><rect class="d4" x="18.2" y="24.2" width="2.6" height="2.6"/><rect class="d5" x="21.2" y="24.2" width="2.6" height="2.6"/><rect class="d6" x="24.2" y="24.2" width="2.6" height="2.6"/><rect class="d7" x="27.2" y="24.2" width="2.6" height="2.6"/><rect class="d8" x="30.2" y="24.2" width="2.6" height="2.6"/>
<rect class="d9" x=".2" y="27.2" width="2.6" height="2.6"/><rect class="d8" x="3.2" y="27.2" width="2.6" height="2.6"/><rect class="d7" x="6.2" y="27.2" width="2.6" height="2.6"/><rect class="d6" x="9.2" y="27.2" width="2.6" height="2.6"/><rect class="d5" x="12.2" y="27.2" width="2.6" height="2.6"/><rect class="d4" x="15.2" y="27.2" width="2.6" height="2.6"/><rect class="d5" x="18.2" y="27.2" width="2.6" height="2.6"/><rect class="d6" x="21.2" y="27.2" width="2.6" height="2.6"/><rect class="d7" x="24.2" y="27.2" width="2.6" height="2.6"/><rect class="d8" x="27.2" y="27.2" width="2.6" height="2.6"/><rect class="d9" x="30.2" y="27.2" width="2.6" height="2.6"/>
<rect class="d10" x=".2" y="30.2" width="2.6" height="2.6"/><rect class="d9" x="3.2" y="30.2" width="2.6" height="2.6"/><rect class="d8" x="6.2" y="30.2" width="2.6" height="2.6"/><rect class="d7" x="9.2" y="30.2" width="2.6" height="2.6"/><rect class="d6" x="12.2" y="30.2" width="2.6" height="2.6"/><rect class="d5" x="15.2" y="30.2" width="2.6" height="2.6"/><rect class="d6" x="18.2" y="30.2" width="2.6" height="2.6"/><rect class="d7" x="21.2" y="30.2" width="2.6" height="2.6"/><rect class="d8" x="24.2" y="30.2" width="2.6" height="2.6"/><rect class="d9" x="27.2" y="30.2" width="2.6" height="2.6"/><rect class="d10" x="30.2" y="30.2" width="2.6" height="2.6"/>
</g>
</svg>
